<svg id="visual" viewBox="0 0 1920 1080" width="1920" height="1080" xmlns="http://www.w3.org/2000/svg" xmlns:xlink="http://www.w3.org/1999/xlink" version="1.1"><rect x="0" y="0" width="1920" height="1080" fill="#3C575C"></rect><path d="M0 181L21.3 181.5C42.7 182 85.3 183 128 182.7C170.7 182.3 213.3 180.7 256 178.5C298.7 176.3 341.3 173.7 384 162.3C426.7 151 469.3 131 512 112.3C554.7 93.7 597.3 76.3 640 78.3C682.7 80.3 725.3 101.7 768 108.5C810.7 115.3 853.3 107.7 896 124.8C938.7 142 981.3 184 1024 183.7C1066.7 183.3 1109.3 140.7 1152 133.5C1194.7 126.3 1237.3 154.7 1280 154.8C1322.7 155 1365.3 127 1408 132.3C1450.7 137.7 1493.3 176.3 1536 170.5C1578.7 164.7 1621.3 114.3 1664 124.3C1706.7 134.3 1749.3 204.7 1792 209C1834.7 213.3 1877.3 151.7 1898.7 120.8L1920 90L1920 1081L1898.7 1081C1877.3 1081 1834.7 1081 1792 1081C1749.3 1081 1706.7 1081 1664 1081C1621.3 1081 1578.7 1081 1536 1081C1493.3 1081 1450.7 1081 1408 1081C1365.3 1081 1322.7 1081 1280 1081C1237.3 1081 1194.7 1081 1152 1081C1109.3 1081 1066.7 1081 1024 1081C981.3 1081 938.7 1081 896 1081C853.3 1081 810.7 1081 768 1081C725.3 1081 682.7 1081 640 1081C597.3 1081 554.7 1081 512 1081C469.3 1081 426.7 1081 384 1081C341.3 1081 298.7 1081 256 1081C213.3 1081 170.7 1081 128 1081C85.3 1081 42.7 1081 21.3 1081L0 1081Z" fill="#556c6f"></path><path d="M0 435L21.3 425.5C42.7 416 85.3 397 128 380.7C170.7 364.3 213.3 350.7 256 345.2C298.7 339.7 341.3 342.3 384 322.8C426.7 303.3 469.3 261.7 512 244C554.7 226.3 597.3 232.7 640 231.2C682.7 229.7 725.3 220.3 768 213.8C810.7 207.3 853.3 203.7 896 203.5C938.7 203.3 981.3 206.7 1024 210.2C1066.7 213.7 1109.3 217.3 1152 210.8C1194.7 204.3 1237.3 187.7 1280 211.3C1322.7 235 1365.3 299 1408 316.8C1450.7 334.7 1493.3 306.3 1536 307.5C1578.7 308.7 1621.3 339.3 1664 353.7C1706.7 368 1749.3 366 1792 370.2C1834.7 374.3 1877.3 384.7 1898.7 389.8L1920 395L1920 1081L1898.7 1081C1877.3 1081 1834.7 1081 1792 1081C1749.3 1081 1706.7 1081 1664 1081C1621.3 1081 1578.7 1081 1536 1081C1493.3 1081 1450.7 1081 1408 1081C1365.3 1081 1322.7 1081 1280 1081C1237.3 1081 1194.7 1081 1152 1081C1109.3 1081 1066.7 1081 1024 1081C981.3 1081 938.7 1081 896 1081C853.3 1081 810.7 1081 768 1081C725.3 1081 682.7 1081 640 1081C597.3 1081 554.7 1081 512 1081C469.3 1081 426.7 1081 384 1081C341.3 1081 298.7 1081 256 1081C213.3 1081 170.7 1081 128 1081C85.3 1081 42.7 1081 21.3 1081L0 1081Z" fill="#6c8581"></path><path d="M0 554L21.3 552.3C42.7 550.7 85.3 547.3 128 527.2C170.7 507 213.3 470 256 450.8C298.7 431.7 341.3 430.3 384 440C426.7 449.7 469.3 470.3 512 493.8C554.7 517.3 597.3 543.7 640 538.8C682.7 534 725.3 498 768 481.8C810.7 465.7 853.3 469.3 896 467.8C938.7 466.3 981.3 459.7 1024 458.3C1066.7 457 1109.3 461 1152 474.5C1194.7 488 1237.3 511 1280 489.2C1322.7 467.3 1365.3 400.7 1408 367.5C1450.7 334.3 1493.3 334.7 1536 334.5C1578.7 334.3 1621.3 333.7 1664 359.5C1706.7 385.3 1749.3 437.7 1792 438.8C1834.7 440 1877.3 390 1898.7 365L1920 340L1920 1081L1898.7 1081C1877.3 1081 1834.7 1081 1792 1081C1749.3 1081 1706.7 1081 1664 1081C1621.3 1081 1578.7 1081 1536 1081C1493.3 1081 1450.7 1081 1408 1081C1365.3 1081 1322.7 1081 1280 1081C1237.3 1081 1194.7 1081 1152 1081C1109.3 1081 1066.7 1081 1024 1081C981.3 1081 938.7 1081 896 1081C853.3 1081 810.7 1081 768 1081C725.3 1081 682.7 1081 640 1081C597.3 1081 554.7 1081 512 1081C469.3 1081 426.7 1081 384 1081C341.3 1081 298.7 1081 256 1081C213.3 1081 170.7 1081 128 1081C85.3 1081 42.7 1081 21.3 1081L0 1081Z" fill="#889e92"></path><path d="M0 664L21.3 651.3C42.7 638.7 85.3 613.3 128 623.8C170.7 634.3 213.3 680.7 256 699C298.7 717.3 341.3 707.7 384 707C426.7 706.3 469.3 714.7 512 690.2C554.7 665.7 597.3 608.3 640 579.7C682.7 551 725.3 551 768 579C810.7 607 853.3 663 896 659.3C938.7 655.7 981.3 592.3 1024 568.7C1066.7 545 1109.3 561 1152 583.5C1194.7 606 1237.3 635 1280 661.7C1322.7 688.3 1365.3 712.7 1408 697.3C1450.7 682 1493.3 627 1536 597.8C1578.7 568.7 1621.3 565.3 1664 595C1706.7 624.7 1749.3 687.3 1792 680.7C1834.7 674 1877.3 598 1898.7 560L1920 522L1920 1081L1898.7 1081C1877.3 1081 1834.7 1081 1792 1081C1749.3 1081 1706.7 1081 1664 1081C1621.3 1081 1578.7 1081 1536 1081C1493.3 1081 1450.7 1081 1408 1081C1365.3 1081 1322.7 1081 1280 1081C1237.3 1081 1194.7 1081 1152 1081C1109.3 1081 1066.7 1081 1024 1081C981.3 1081 938.7 1081 896 1081C853.3 1081 810.7 1081 768 1081C725.3 1081 682.7 1081 640 1081C597.3 1081 554.7 1081 512 1081C469.3 1081 426.7 1081 384 1081C341.3 1081 298.7 1081 256 1081C213.3 1081 170.7 1081 128 1081C85.3 1081 42.7 1081 21.3 1081L0 1081Z" fill="#a9b6a3"></path><path d="M0 856L21.3 852.3C42.7 848.7 85.3 841.3 128 813C170.7 784.7 213.3 735.3 256 739.5C298.7 743.7 341.3 801.3 384 826.2C426.7 851 469.3 843 512 806C554.7 769 597.3 703 640 715.3C682.7 727.7 725.3 818.3 768 853.2C810.7 888 853.3 867 896 826.3C938.7 785.7 981.3 725.3 1024 716.8C1066.7 708.3 1109.3 751.7 1152 773.5C1194.7 795.3 1237.3 795.7 1280 777.2C1322.7 758.7 1365.3 721.3 1408 701.7C1450.7 682 1493.3 680 1536 678.5C1578.7 677 1621.3 676 1664 707.8C1706.7 739.7 1749.3 804.3 1792 812.7C1834.7 821 1877.3 773 1898.7 749L1920 725L1920 1081L1898.7 1081C1877.3 1081 1834.7 1081 1792 1081C1749.3 1081 1706.7 1081 1664 1081C1621.3 1081 1578.7 1081 1536 1081C1493.3 1081 1450.7 1081 1408 1081C1365.3 1081 1322.7 1081 1280 1081C1237.3 1081 1194.7 1081 1152 1081C1109.3 1081 1066.7 1081 1024 1081C981.3 1081 938.7 1081 896 1081C853.3 1081 810.7 1081 768 1081C725.3 1081 682.7 1081 640 1081C597.3 1081 554.7 1081 512 1081C469.3 1081 426.7 1081 384 1081C341.3 1081 298.7 1081 256 1081C213.3 1081 170.7 1081 128 1081C85.3 1081 42.7 1081 21.3 1081L0 1081Z" fill="#ceceb6"></path><path d="M0 853L21.3 864.5C42.7 876 85.3 899 128 891C170.7 883 213.3 844 256 827.5C298.7 811 341.3 817 384 856.7C426.7 896.3 469.3 969.7 512 969.8C554.7 970 597.3 897 640 895.8C682.7 894.7 725.3 965.3 768 999.8C810.7 1034.3 853.3 1032.7 896 1019.3C938.7 1006 981.3 981 1024 943.5C1066.7 906 1109.3 856 1152 836.7C1194.7 817.3 1237.3 828.7 1280 851C1322.7 873.3 1365.3 906.7 1408 926.7C1450.7 946.7 1493.3 953.3 1536 970.7C1578.7 988 1621.3 1016 1664 1014.8C1706.7 1013.7 1749.3 983.3 1792 962.7C1834.7 942 1877.3 931 1898.7 925.5L1920 920L1920 1081L1898.7 1081C1877.3 1081 1834.7 1081 1792 1081C1749.3 1081 1706.7 1081 1664 1081C1621.3 1081 1578.7 1081 1536 1081C1493.3 1081 1450.7 1081 1408 1081C1365.3 1081 1322.7 1081 1280 1081C1237.3 1081 1194.7 1081 1152 1081C1109.3 1081 1066.7 1081 1024 1081C981.3 1081 938.7 1081 896 1081C853.3 1081 810.7 1081 768 1081C725.3 1081 682.7 1081 640 1081C597.3 1081 554.7 1081 512 1081C469.3 1081 426.7 1081 384 1081C341.3 1081 298.7 1081 256 1081C213.3 1081 170.7 1081 128 1081C85.3 1081 42.7 1081 21.3 1081L0 1081Z" fill="#f4e5ce"></path></svg>